<?xml version="1.0" encoding="utf-8"?>
<!-- Generator: Adobe Illustrator 23.0.0, SVG Export Plug-In . SVG Version: 6.00 Build 0)  -->
<svg version="1.1" xmlns="http://www.w3.org/2000/svg" xmlns:xlink="http://www.w3.org/1999/xlink" x="0px" y="0px"
	 viewBox="0 0 1024 1024" style="enable-background:new 0 0 1024 1024;" xml:space="preserve">
<style type="text/css">
	.st0{enable-background:new    ;}
	.st1{fill:#CCCCCC;}
	.st2{fill-rule:evenodd;clip-rule:evenodd;fill:#CCCCCC;}
</style>
<g id="矩形_1_1_" class="st0">
	<g id="矩形_1">
		<g>
			<path class="st1" d="M714,148H542c-127,0-230,103-230,230v66c0,127,103,230,230,230c0,0,44.3,0,88,0c42.3,0,55.1,115,94,115
				c48.5,0,68.2-125.4,101.1-143.6C896,606.3,944,530.7,944,444v-66C944,251,841,148,714,148z"/>
		</g>
	</g>
</g>
<g id="矩形_1_拷贝_2_1_" class="st0">
	<g id="矩形_1_拷贝_2">
		<g>
			<path class="st2" d="M262,460.7v-73.5c0-12.7,0.9-25.1,2.7-37.3h-17.8c-91.5,0-165.6,74.1-165.6,165.6V563
				c0,62.5,34.6,116.8,85.6,145c23.7,13.1,37.9,103.4,72.8,103.4c28,0,37.2-82.8,67.7-82.8c31.4,0,63.3,0,63.3,0
				c29,0,56.3-7.5,80.1-20.6C342,678.5,262,579,262,460.7z"/>
		</g>
	</g>
</g>
</svg>
