<?xml version="1.0" encoding="utf-8"?>
<!-- Generator: Adobe Illustrator 23.0.0, SVG Export Plug-In . SVG Version: 6.00 Build 0)  -->
<svg version="1.1" id="组_2_1_" xmlns="http://www.w3.org/2000/svg" xmlns:xlink="http://www.w3.org/1999/xlink" x="0px" y="0px"
	 viewBox="0 0 1024 1024" style="enable-background:new 0 0 1024 1024;" xml:space="preserve">
<style type="text/css">
	.st0{fill:#8845FF;}
	.st1{fill-rule:evenodd;clip-rule:evenodd;fill:#DF93FF;}
	.st2{fill:#FFFFFF;}
	.st3{fill:#DD8DFF;}
	.st4{fill-rule:evenodd;clip-rule:evenodd;fill:#BB78FF;}
</style>
<g id="矩形_1">
	<g>
		<path class="st0" d="M791,408.9V522h115.5L791,408.9L791,408.9z M215,426.5L117.5,522H215V426.5L215,426.5z"/>
	</g>
</g>
<g id="圆角矩形_1_拷贝_5">
	<g>
		<path class="st1" d="M755,132H269c-33.1,0-60,26.9-60,60v498c0,33.1,26.9,60,60,60h486c33.1,0,60-26.9,60-60V192
			C815,158.9,788.1,132,755,132z M735,630c0,22.1-17.9,40-40,40H329c-22.1,0-40-17.9-40-40V252c0-22.1,17.9-40,40-40h366
			c22.1,0,40,17.9,40,40V630z"/>
	</g>
</g>
<g id="圆角矩形_1_拷贝_4">
	<g>
		<path class="st2" d="M856,488L511.6,658L167,488c-33.1,0-60,36.9-60,70v278c0,33.1,26.9,60,60,60h689c33.1,0,60-26.9,60-60V558
			C916,524.9,889.1,488,856,488z"/>
	</g>
</g>
<g id="圆角矩形_1">
	<g>
		<path class="st3" d="M664,319H360c-5.5,0-10,4.5-10,10v46c0,5.5,4.5,10,10,10h304c5.5,0,10-4.5,10-10v-46
			C674,323.5,669.5,319,664,319z"/>
	</g>
</g>
<g id="圆角矩形_1_拷贝_7">
	<g>
		<path class="st3" d="M540,422H360c-5.5,0-10,4.5-10,10v46c0,5.5,4.5,10,10,10h180c5.5,0,10-4.5,10-10v-46
			C550,426.5,545.5,422,540,422z"/>
	</g>
</g>
<g id="圆角矩形_1_拷贝_6">
	<g>
		<path class="st4" d="M856,488L511.6,658L167,488c-33.1,0-60,36.9-60,70v278c0,33.1,26.9,60,60,60h689c33.1,0,60-26.9,60-60V558
			C916,524.9,889.1,488,856,488z M836,796c0,11-9,20-20,20H207c-11,0-20-9-20-20V588c0-5.5,4.5-10,10-10l314.6,160L826,578
			c5.5,0,10,4.5,10,10V796z"/>
	</g>
</g>
</svg>
