<?xml version="1.0" encoding="utf-8"?>
<!-- Generator: Adobe Illustrator 23.0.0, SVG Export Plug-In . SVG Version: 6.00 Build 0)  -->
<svg version="1.1" xmlns="http://www.w3.org/2000/svg" xmlns:xlink="http://www.w3.org/1999/xlink" x="0px" y="0px"
	 viewBox="0 0 1024 1024" style="enable-background:new 0 0 1024 1024;" xml:space="preserve">
<style type="text/css">
	.st0{enable-background:new    ;}
	.st1{fill-rule:evenodd;clip-rule:evenodd;fill:#FF7E9F;}
	.st2{fill-rule:evenodd;clip-rule:evenodd;fill:#FFB6C9;}
	.st3{fill:#FF7E9F;}
</style>
<g id="圆角矩形_1_拷贝_1_" class="st0">
	<g id="圆角矩形_1_拷贝">
		<g>
			<path class="st1" d="M816,128H208c-44.2,0-80,35.8-80,80v460c0,44.2,35.8,80,80,80h608c44.2,0,80-35.8,80-80V208
				C896,163.8,860.2,128,816,128z M816,638c0,16.6-13.4,30-30,30H238c-16.6,0-30-13.4-30-30V238c0-16.6,13.4-30,30-30h548
				c16.6,0,30,13.4,30,30V638z"/>
		</g>
	</g>
</g>
<g id="圆角矩形_1_拷贝_2_1_" class="st0">
	<g id="圆角矩形_1_拷贝_2">
		<g>
			<path class="st2" d="M628,301H308c-5.5,0-10,4.5-10,10v60c0,5.5,4.5,10,10,10h320c5.5,0,10-4.5,10-10v-60
				C638,305.5,633.5,301,628,301z M547,432H308c-5.5,0-10,4.5-10,10v60c0,5.5,4.5,10,10,10h239c5.5,0,10-4.5,10-10v-60
				C557,436.5,552.5,432,547,432z"/>
		</g>
	</g>
</g>
<g id="圆角矩形_1_拷贝_3_1_" class="st0">
	<g id="圆角矩形_1_拷贝_3">
		<g>
			<path class="st3" d="M856,816H168c-22.1,0-40,17.9-40,40c0,22.1,17.9,40,40,40h688c22.1,0,40-17.9,40-40
				C896,833.9,878.1,816,856,816z"/>
		</g>
	</g>
</g>
</svg>
