<?xml version="1.0" encoding="utf-8"?>
<!-- Generator: Adobe Illustrator 23.0.0, SVG Export Plug-In . SVG Version: 6.00 Build 0)  -->
<svg version="1.1" xmlns="http://www.w3.org/2000/svg" xmlns:xlink="http://www.w3.org/1999/xlink" x="0px" y="0px"
	 viewBox="0 0 1024 1024" style="enable-background:new 0 0 1024 1024;" xml:space="preserve">
<style type="text/css">
	.st0{enable-background:new    ;}
	.st1{fill:#FF5D86;}
	.st2{fill-rule:evenodd;clip-rule:evenodd;fill:#FFB6C9;}
</style>
<g id="形状_1_1_" class="st0">
	<g id="形状_1">
		<g>
			<path class="st1" d="M915.2,227.5c-26.3-43.8-64.1-77.6-109.4-98c-47.4-21.4-101-26.8-154.9-16.1c-47.7,9.6-95.1,32-138.4,65.4
				c-43.4-33.5-90.7-55.9-138.4-65.4c-53.9-10.7-107.5-5.2-154.9,16.1c-45.2,20.3-83.1,54.2-109.4,98
				c-27.2,45-41.5,100.1-41.5,159.2c0,76.7,23.4,152.3,69.5,224.8c35.9,56.6,85.8,111.3,148.1,162.8
				c104.9,86.5,208.5,133.5,212.9,135.5l13.8,6.2l13.8-6.2c4.4-2,108-49,212.8-135.5c62.3-51.5,112.1-106.2,148.1-162.8
				c46-72.5,69.4-148.1,69.4-224.8C956.7,327.7,942.3,272.5,915.2,227.5z M821.3,572.7c-30.9,49-74.5,96.8-129.3,142.2
				c-74.2,61.4-149.4,101.8-179.3,116.7c-29.9-15-105.1-55.3-179.3-116.7c-54.8-45.4-98.3-93.2-129.3-142.2
				c-37.7-59.4-56.8-120.8-56.8-182.3c0-88.5,40.3-159.6,107.8-189.9c22.6-10.1,46.7-15.1,71.6-15.1c54.6,0,112.6,24.2,164.3,70.2
				l21.7,19.3l21.6-19.2c75.4-67,163.6-87.5,236-55.1C837.7,230.9,878,301.8,878,390.4C878,451.9,858.9,513.2,821.3,572.7z"/>
		</g>
	</g>
</g>
<g id="圆角矩形_1_拷贝_8_1_" class="st0">
	<g id="圆角矩形_1_拷贝_8">
		<g>
			<path class="st2" d="M694,531H350c-5.5,0-10,4.5-10,10v46c0,5.5,4.5,10,10,10h344c5.5,0,10-4.5,10-10v-46
				C704,535.5,699.5,531,694,531z M350,471h230c5.5,0,10-4.5,10-10v-46c0-5.5-4.5-10-10-10H350c-5.5,0-10,4.5-10,10v46
				C340,466.5,344.5,471,350,471z"/>
		</g>
	</g>
</g>
</svg>
