<?xml version="1.0" encoding="utf-8"?>
<!-- Generator: Adobe Illustrator 23.0.0, SVG Export Plug-In . SVG Version: 6.00 Build 0)  -->
<svg version="1.1" xmlns="http://www.w3.org/2000/svg" xmlns:xlink="http://www.w3.org/1999/xlink" x="0px" y="0px"
	 viewBox="0 0 1024 1024" style="enable-background:new 0 0 1024 1024;" xml:space="preserve">
<style type="text/css">
	.st0{enable-background:new    ;}
	.st1{fill-rule:evenodd;clip-rule:evenodd;fill:#AEDFC5;}
	.st2{fill:#FFFFFF;}
	.st3{fill-rule:evenodd;clip-rule:evenodd;fill:#7AD0AC;}
	.st4{fill:#1FBFB2;}
</style>
<g id="圆角矩形_1_拷贝_1_" class="st0">
	<g id="圆角矩形_1_拷贝">
		<g>
			<path class="st1" d="M665.5,127H269c-88.4,0-160,71.6-160,160v400c0,22.1,17.9,40,40,40h556.5c22.1,0,40-17.9,40-40V207
				C745.5,162.8,709.7,127,665.5,127z M665.5,597c0,27.6-22.4,50-50,50H239c-27.6,0-50-22.4-50-50V297c0-49.7,40.3-90,90-90h356.5
				c16.6,0,30,13.4,30,30V597z"/>
		</g>
	</g>
</g>
<g id="圆角矩形_1_拷贝_2_1_" class="st0">
	<g id="圆角矩形_1_拷贝_2">
		<g>
			<path class="st2" d="M867,305H159c-22.1,0-40,17.9-40,40v500c0,22.1,17.9,40,40,40h708c22.1,0,40-17.9,40-40V345
				C907,322.9,889.1,305,867,305z"/>
		</g>
	</g>
</g>
<g id="圆角矩形_1_拷贝_3_1_" class="st0">
	<g id="圆角矩形_1_拷贝_3">
		<g>
			<path class="st3" d="M877,295H149c-22.1,0-40,17.9-40,40v520c0,22.1,17.9,40,40,40h728c22.1,0,40-17.9,40-40V335
				C917,312.9,899.1,295,877,295z M837,795c0,11-9,20-20,20H209c-11,0-20-9-20-20V395c0-11,9-20,20-20h608c11,0,20,9,20,20V795z"/>
		</g>
	</g>
</g>
<g id="椭圆_1_1_" class="st0">
	<g id="椭圆_1">
		<g>
			<circle class="st4" cx="638" cy="575" r="65"/>
		</g>
	</g>
</g>
</svg>
