<?xml version="1.0" encoding="utf-8"?>
<!-- Generator: Adobe Illustrator 23.0.0, SVG Export Plug-In . SVG Version: 6.00 Build 0)  -->
<svg version="1.1" id="图层_1" xmlns="http://www.w3.org/2000/svg" xmlns:xlink="http://www.w3.org/1999/xlink" x="0px" y="0px"
	 viewBox="0 0 1024 1024" style="enable-background:new 0 0 1024 1024;" xml:space="preserve">
<style type="text/css">
	.st0{enable-background:new    ;}
	.st1{fill:#CCCCCC;}
</style>
<g id="形状_1_1_" class="st0">
	<g id="形状_1">
		<g>
			<path class="st1" d="M936.4,823l-69.2-648.2c-4.3-56.2-51.9-95.1-108.2-95.1H265.7c-56.2,0-103.8,43.2-108.2,95.1L88.3,823v13
				c0,60.5,47.6,108,108.2,108h644.7C897.4,935.3,940.7,883.5,936.4,823z M512.3,447c-95.2,0-173.1-77.8-173.1-172.8
				c0-13,8.7-21.6,21.6-21.6c13,0,21.6,8.6,21.6,21.6c0,73.5,56.2,129.6,129.8,129.6S642,347.6,642,274.2c0-13,8.7-21.6,21.6-21.6
				c13,0,21.6,8.6,21.6,21.6C685.4,369.3,607.5,447,512.3,447z"/>
		</g>
	</g>
</g>
</svg>
