<?xml version="1.0" encoding="utf-8"?>
<!-- Generator: Adobe Illustrator 23.0.0, SVG Export Plug-In . SVG Version: 6.00 Build 0)  -->
<svg version="1.1" id="形状_1_1_" xmlns="http://www.w3.org/2000/svg" xmlns:xlink="http://www.w3.org/1999/xlink" x="0px"
	 y="0px" viewBox="0 0 1024 1024" style="enable-background:new 0 0 1024 1024;" xml:space="preserve">
<style type="text/css">
	.st0{fill:#CCCCCC;}
</style>
<g id="形状_1">
	<g>
		<path class="st0" d="M935.9,823.2l-69.2-648.3c-4.3-56.2-51.9-95.1-108.2-95.1H265.2c-56.3,0-103.9,43.2-108.2,95.1L87.8,823.2v13
			c0,60.5,47.6,108.1,108.2,108.1h644.8C897,935.6,940.3,883.7,935.9,823.2z M511.9,447.2c-95.2,0-173.1-77.8-173.1-172.9
			c0-13,8.7-21.6,21.6-21.6c13,0,21.6,8.6,21.6,21.6c0,73.5,56.3,129.7,129.8,129.7c73.6,0,129.8-56.2,129.8-129.7
			c0-13,8.7-21.6,21.6-21.6c13,0,21.6,8.6,21.6,21.6C685,369.4,607.1,447.2,511.9,447.2z"/>
	</g>
</g>
</svg>
